STARTFONT 2.1
FONT -Adobe-ITC Lubalin Graph-Book-O-Normal--24-180-100-100-P-140-ISO8859-15
SIZE 18 100 100
FONTBOUNDINGBOX 31 28 -1 -4

STARTPROPERTIES 30
FOUNDRY "Adobe"
FAMILY_NAME "ITC Lubalin Graph"
WEIGHT_NAME "Book"
SLANT "O"
SETWIDTH_NAME "Normal"
ADD_STYLE_NAME ""
PIXEL_SIZE 24
POINT_SIZE 180
RESOLUTION_X 100
RESOLUTION_Y 100
SPACING "P"
AVERAGE_WIDTH 140
CHARSET_REGISTRY "ISO8859"
CHARSET_ENCODING "15"
CAP_HEIGHT 18
X_HEIGHT 14
FACE_NAME "ITC Lubalin Graph Book Oblique"
COPYRIGHT "Copyright (c) 1984, 1987 Adobe Systems Incorporated. All Rights Reserved. Copyright (c) 1988, 1991 Digital Equipment Corporation. All Rights Reserved."
NOTICE "ITC Lubalin Graph is a registered trademark of International Typeface Corporation."
_DEC_DEVICE_FONTNAMES "PS=LubalinGraph-BookOblique"
_DEC_PRODUCTINFO "DECwindows Fonts V2.2, 07-Nov-1991"
RELATIVE_SETWIDTH 50
RELATIVE_WEIGHT 40
CHARSET_COLLECTIONS "ASCII ISO8859-1 ADOBE-STANDARD"
FULL_NAME "ITC Lubalin Graph Book Oblique"
WEIGHT 10
QUAD_WIDTH 16
DEFAULT_CHAR 32
FONT_DESCENT 4
FONT_ASCENT 21
ENDPROPERTIES

CHARS 191

STARTCHAR space
ENCODING 32
SWIDTH 300 0
DWIDTH 7 0
BBX 1 1 0 0
BITMAP
00
ENDCHAR

STARTCHAR exclam
ENCODING 33
SWIDTH 140 0
DWIDTH 6 0
BBX 5 18 2 0
BITMAP
18
18
18
18
30
30
30
30
30
60
60
60
60
00
00
C0
C0
C0
ENDCHAR

STARTCHAR quotedbl
ENCODING 34
SWIDTH 280 0
DWIDTH 7 0
BBX 6 6 3 12
BITMAP
6C
6C
6C
D8
D8
D8
ENDCHAR

STARTCHAR numbersign
ENCODING 35
SWIDTH 580 0
DWIDTH 15 0
BBX 14 17 1 0
BITMAP
0330
0330
0330
0330
0330
3FFC
3FFC
0CC0
0CC0
0CC0
FFF8
FFF8
3300
3300
3300
3300
3300
ENDCHAR

STARTCHAR dollar
ENCODING 36
SWIDTH 580 0
DWIDTH 14 0
BBX 15 22 0 -2
BITMAP
0060
0060
03F6
0FFE
0CCC
18CC
18C0
1980
1D80
0F80
07C0
01E0
0370
0330
0330
6630
6670
F660
FFE0
CF80
0C00
0C00
ENDCHAR

STARTCHAR percent
ENCODING 37
SWIDTH 800 0
DWIDTH 21 0
BBX 19 18 2 0
BITMAP
0E0300
3F0700
718600
618C00
C19800
C31800
C73000
7E6000
386000
00C380
018FC0
019C60
031860
063060
0630C0
0C31C0
1C1F80
180E00
ENDCHAR

STARTCHAR ampersand
ENCODING 38
SWIDTH 720 0
DWIDTH 18 0
BBX 19 19 0 0
BITMAP
00F000
03F800
071C00
060C00
060C00
061800
033000
03E000
0F81E0
3DC1E0
70E300
607600
E03C00
C01C00
C03E00
C07700
60E380
7FC1C0
1F00E0
ENDCHAR

STARTCHAR quoteright
ENCODING 39
SWIDTH 200 0
DWIDTH 5 0
BBX 3 4 4 14
BITMAP
60
60
C0
C0
ENDCHAR

STARTCHAR parenleft
ENCODING 40
SWIDTH 340 0
DWIDTH 9 0
BBX 8 21 1 -3
BITMAP
03
06
0C
18
30
30
60
60
C0
C0
C0
C0
C0
C0
C0
60
60
30
30
18
0C
ENDCHAR

STARTCHAR parenright
ENCODING 41
SWIDTH 340 0
DWIDTH 9 0
BBX 8 21 1 -3
BITMAP
30
18
0C
0C
06
06
03
03
03
03
03
03
03
06
06
0C
0C
18
30
60
C0
ENDCHAR

STARTCHAR asterisk
ENCODING 42
SWIDTH 340 0
DWIDTH 9 0
BBX 6 5 4 13
BITMAP
6C
38
FC
70
D8
ENDCHAR

STARTCHAR plus
ENCODING 43
SWIDTH 660 0
DWIDTH 16 0
BBX 13 14 2 1
BITMAP
0180
0180
0180
0180
0300
0300
FFF8
FFF8
0600
0600
0C00
0C00
0C00
0C00
ENDCHAR

STARTCHAR comma
ENCODING 44
SWIDTH 300 0
DWIDTH 7 0
BBX 3 4 2 -2
BITMAP
60
60
C0
C0
ENDCHAR

STARTCHAR minus
ENCODING 45
SWIDTH 660 0
DWIDTH 15 0
BBX 12 2 2 7
BITMAP
FFF0
FFF0
ENDCHAR

STARTCHAR period
ENCODING 46
SWIDTH 300 0
DWIDTH 7 0
BBX 2 3 2 0
BITMAP
C0
C0
C0
ENDCHAR

STARTCHAR slash
ENCODING 47
SWIDTH 580 0
DWIDTH 13 0
BBX 12 21 1 -3
BITMAP
0030
0030
0060
0060
00C0
00C0
0180
0180
0300
0300
0600
0600
0C00
0C00
1800
1800
3000
3000
6000
6000
C000
ENDCHAR

STARTCHAR zero
ENCODING 48
SWIDTH 580 0
DWIDTH 14 0
BBX 14 18 1 0
BITMAP
03E0
0FF8
1C18
180C
300C
300C
300C
6018
6018
6018
C030
C030
C030
C060
C060
60C0
7FC0
1F00
ENDCHAR

STARTCHAR one
ENCODING 49
SWIDTH 580 0
DWIDTH 14 0
BBX 7 18 4 0
BITMAP
3E
3E
06
06
06
0C
0C
0C
0C
18
18
18
18
30
30
30
FC
FC
ENDCHAR

STARTCHAR two
ENCODING 50
SWIDTH 580 0
DWIDTH 14 0
BBX 14 18 0 0
BITMAP
01F0
07F8
0E1C
0C0C
180C
180C
000C
0018
0038
0070
01E0
0380
0700
1C00
3830
7030
FFF0
FFF0
ENDCHAR

STARTCHAR three
ENCODING 51
SWIDTH 580 0
DWIDTH 14 0
BBX 14 18 0 0
BITMAP
01E0
07F8
0E1C
0C0C
000C
0018
0070
03E0
03E0
0030
0018
0018
0018
C018
C030
6070
7FE0
1F80
ENDCHAR

STARTCHAR four
ENCODING 52
SWIDTH 580 0
DWIDTH 14 0
BBX 13 18 0 0
BITMAP
0018
0038
0078
00D8
0198
0330
0630
0C30
0C30
1860
3060
6060
FFF8
FFF8
00C0
00C0
03F0
03F0
ENDCHAR

STARTCHAR five
ENCODING 53
SWIDTH 580 0
DWIDTH 14 0
BBX 14 18 0 0
BITMAP
07FC
07FC
0C00
0C00
1800
1800
37C0
3FF0
3030
0018
0018
0018
0018
C030
C030
60E0
7FC0
1F00
ENDCHAR

STARTCHAR six
ENCODING 54
SWIDTH 580 0
DWIDTH 14 0
BBX 13 18 1 0
BITMAP
00C0
0180
0300
0600
0C00
1800
37C0
3FF0
7838
6018
C018
C018
C018
C030
6030
60E0
3FC0
0F00
ENDCHAR

STARTCHAR seven
ENCODING 55
SWIDTH 580 0
DWIDTH 14 0
BBX 12 18 3 0
BITMAP
7FF0
7FF0
6060
6060
00C0
00C0
0180
0300
0300
0600
0C00
0C00
1800
3000
3000
6000
C000
C000
ENDCHAR

STARTCHAR eight
ENCODING 56
SWIDTH 580 0
DWIDTH 14 0
BBX 13 18 1 0
BITMAP
03C0
0FF0
0C30
1818
1818
1830
0C70
0FE0
3FC0
70E0
6070
C030
C030
C030
C060
60E0
3FC0
1F00
ENDCHAR

STARTCHAR nine
ENCODING 57
SWIDTH 580 0
DWIDTH 14 0
BBX 12 18 3 0
BITMAP
0F80
3FE0
7060
6030
C030
C030
C030
C060
6060
70C0
3FC0
0F80
0300
0600
0C00
1800
3000
6000
ENDCHAR

STARTCHAR colon
ENCODING 58
SWIDTH 300 0
DWIDTH 6 0
BBX 4 13 2 0
BITMAP
30
30
30
00
00
00
00
00
00
00
C0
C0
C0
ENDCHAR

STARTCHAR semicolon
ENCODING 59
SWIDTH 300 0
DWIDTH 7 0
BBX 5 15 2 -2
BITMAP
18
18
18
00
00
00
00
00
00
00
00
60
60
C0
C0
ENDCHAR

STARTCHAR less
ENCODING 60
SWIDTH 660 0
DWIDTH 17 0
BBX 16 14 1 1
BITMAP
0007
001E
0078
01E0
0780
1E00
7800
E000
7800
1E00
0780
01E0
0078
001C
ENDCHAR

STARTCHAR equal
ENCODING 61
SWIDTH 660 0
DWIDTH 16 0
BBX 15 6 1 4
BITMAP
7FFE
7FFE
0000
0000
FFFC
FFFC
ENDCHAR

STARTCHAR greater
ENCODING 62
SWIDTH 660 0
DWIDTH 17 0
BBX 16 14 1 1
BITMAP
3800
1E00
0780
01E0
0078
001E
0007
001E
0078
01E0
0780
1E00
7800
E000
ENDCHAR

STARTCHAR question
ENCODING 63
SWIDTH 520 0
DWIDTH 13 0
BBX 10 18 3 0
BITMAP
1F00
7F80
61C0
C0C0
C0C0
00C0
0180
0700
0E00
1800
1800
3000
3000
0000
0000
6000
6000
6000
ENDCHAR

STARTCHAR at
ENCODING 64
SWIDTH 900 0
DWIDTH 20 0
BBX 19 18 2 0
BITMAP
00FF00
03FFC0
0F00C0
1C0060
387660
31FE60
638C60
661860
C618C0
CC30C0
CC3180
CC7380
CFFF00
679C00
700180
380700
1FFE00
07F800
ENDCHAR

STARTCHAR A
ENCODING 65
SWIDTH 820 0
DWIDTH 20 0
BBX 20 18 0 0
BITMAP
007C00
007C00
001C00
003600
006600
006600
00C300
018300
018300
030180
07FF80
07FF80
0C0180
1800C0
1800C0
3000C0
FC03F0
FC03F0
ENDCHAR

STARTCHAR B
ENCODING 66
SWIDTH 580 0
DWIDTH 14 0
BBX 15 18 0 0
BITMAP
1FF8
1FFC
0606
0606
0C06
0C0C
0C18
0FF0
0FF8
181C
180C
180C
180C
300C
3018
3038
FFF0
FFC0
ENDCHAR

STARTCHAR C
ENCODING 67
SWIDTH 740 0
DWIDTH 18 0
BBX 18 18 1 0
BITMAP
00FCC0
03FFC0
0F0380
1C0180
380180
300000
600000
600000
C00000
C00000
C00000
C00000
C00000
600180
600300
380E00
1FFC00
07F000
ENDCHAR

STARTCHAR D
ENCODING 68
SWIDTH 720 0
DWIDTH 18 0
BBX 19 18 0 0
BITMAP
1FFE00
1FFF80
060180
0600C0
0C00C0
0C0060
0C0060
0C0060
0C0060
1800C0
1800C0
1800C0
180180
300380
300700
301E00
FFF800
FFE000
ENDCHAR

STARTCHAR E
ENCODING 69
SWIDTH 560 0
DWIDTH 14 0
BBX 16 18 0 0
BITMAP
1FFF
1FFF
0603
0603
0C00
0C00
0C00
0C00
0FF0
1FF0
1800
1800
1800
3000
3018
3018
FFF8
FFF8
ENDCHAR

STARTCHAR F
ENCODING 70
SWIDTH 560 0
DWIDTH 14 0
BBX 16 18 0 0
BITMAP
1FFF
1FFF
0603
0603
0C00
0C00
0C00
0C00
0FF0
1FF0
1800
1800
1800
3000
3000
3000
FC00
FC00
ENDCHAR

STARTCHAR G
ENCODING 71
SWIDTH 780 0
DWIDTH 18 0
BBX 18 18 1 0
BITMAP
00FCC0
03FFC0
0F0380
1C0180
380180
300000
600000
600000
C00000
C1FF80
C1FF80
C00180
C00380
600700
600F00
383B00
1FF300
07C300
ENDCHAR

STARTCHAR H
ENCODING 72
SWIDTH 720 0
DWIDTH 18 0
BBX 20 18 0 0
BITMAP
1F83F0
1F83F0
0600C0
0600C0
0600C0
0C0180
0C0180
0C0180
0FFF80
1FFF00
180300
180300
180300
300600
300600
300600
FC1F80
FC1F80
ENDCHAR

STARTCHAR I
ENCODING 73
SWIDTH 300 0
DWIDTH 7 0
BBX 9 18 0 0
BITMAP
1F80
1F80
0600
0600
0600
0C00
0C00
0C00
0C00
1800
1800
1800
1800
3000
3000
3000
FC00
FC00
ENDCHAR

STARTCHAR J
ENCODING 74
SWIDTH 520 0
DWIDTH 13 0
BBX 15 18 0 0
BITMAP
007E
007E
0018
0018
0018
0030
0030
0030
0030
0060
0060
0060
0060
C0C0
C0C0
6180
7F80
1E00
ENDCHAR

STARTCHAR K
ENCODING 75
SWIDTH 700 0
DWIDTH 17 0
BBX 18 18 0 0
BITMAP
1F8FC0
1F8FC0
060600
060C00
061800
0C3000
0C6000
0CC000
0D8000
1F0000
1F8000
19C000
18E000
307000
303800
301C00
FC3F00
FC3F00
ENDCHAR

STARTCHAR L
ENCODING 76
SWIDTH 520 0
DWIDTH 13 0
BBX 12 18 0 0
BITMAP
1F80
1F80
0600
0600
0600
0C00
0C00
0C00
0C00
1800
1800
1800
1800
3030
3030
3030
FFF0
FFF0
ENDCHAR

STARTCHAR M
ENCODING 77
SWIDTH 980 0
DWIDTH 24 0
BBX 26 18 0 0
BITMAP
1F0007C0
1F000FC0
07000F00
07001B00
0D803600
0D803600
0D806600
0D806600
18C0CC00
18C18C00
18C18C00
18C30C00
30631800
30661800
306C1800
306C1800
FC387E00
FC387E00
ENDCHAR

STARTCHAR N
ENCODING 78
SWIDTH 800 0
DWIDTH 20 0
BBX 22 18 0 0
BITMAP
1E00FC
1F00FC
070030
078030
068060
0CC060
0CC060
0C60C0
0C60C0
1830C0
1830C0
181980
181980
300D80
300D80
300700
FC0700
FC0700
ENDCHAR

STARTCHAR O
ENCODING 79
SWIDTH 800 0
DWIDTH 20 0
BBX 20 18 1 0
BITMAP
00FE00
03FF80
0F01C0
1C0060
380060
300030
600030
600030
C00030
C00030
C00060
C00060
C000C0
6001C0
600380
380F00
1FFC00
07F000
ENDCHAR

STARTCHAR P
ENCODING 80
SWIDTH 580 0
DWIDTH 14 0
BBX 16 18 0 0
BITMAP
1FF8
1FFE
0606
0603
0603
0C03
0C03
0C06
0C0E
1FFC
1FF0
1800
1800
3000
3000
3000
FC00
FC00
ENDCHAR

STARTCHAR Q
ENCODING 81
SWIDTH 860 0
DWIDTH 22 0
BBX 20 18 1 0
BITMAP
00FE00
03FF80
0F01C0
1C0060
380060
300030
600030
600030
C00030
C00030
CF8060
FFE060
F070C0
6039C0
601BB0
380F30
1FFFF0
07F1F0
ENDCHAR

STARTCHAR R
ENCODING 82
SWIDTH 640 0
DWIDTH 17 0
BBX 17 18 0 0
BITMAP
1FFC00
1FFF00
060300
060180
0C0180
0C0180
0C0180
0C0300
0C0700
19FE00
18F800
18C000
186000
306000
303000
303000
FC1E00
FC1E00
ENDCHAR

STARTCHAR S
ENCODING 83
SWIDTH 500 0
DWIDTH 13 0
BBX 14 18 0 0
BITMAP
07CC
0FFC
1C38
1818
3018
3000
3800
1E00
0FC0
01F0
0038
0018
0018
C018
C030
E070
FFE0
DF80
ENDCHAR

STARTCHAR T
ENCODING 84
SWIDTH 540 0
DWIDTH 13 0
BBX 12 18 3 0
BITMAP
FFF0
FFF0
C630
C630
0600
0C00
0C00
0C00
0C00
1800
1800
1800
1800
3000
3000
3000
FC00
FC00
ENDCHAR

STARTCHAR U
ENCODING 85
SWIDTH 700 0
DWIDTH 17 0
BBX 17 18 2 0
BITMAP
7E1F80
7E1F80
180600
180600
300C00
300C00
300C00
300C00
601800
601800
601800
601800
C03000
C03000
C03000
606000
7FE000
1F8000
ENDCHAR

STARTCHAR V
ENCODING 86
SWIDTH 780 0
DWIDTH 19 0
BBX 18 18 3 0
BITMAP
FC0FC0
FC0FC0
300300
300600
300600
300C00
300C00
181800
181800
183000
183000
186000
0C6000
0CC000
0CC000
0D8000
078000
070000
ENDCHAR

STARTCHAR W
ENCODING 87
SWIDTH 1040 0
DWIDTH 26 0
BBX 25 18 3 0
BITMAP
FC181F80
FC181F80
30380600
30380600
306C0C00
306C0C00
306C1800
18CC1800
18CC3000
19863000
19866000
1B066000
1B06C000
1B06C000
0E038000
0E038000
0C030000
0C030000
ENDCHAR

STARTCHAR X
ENCODING 88
SWIDTH 740 0
DWIDTH 18 0
BBX 20 18 0 0
BITMAP
1F83F0
1F83F0
0600C0
060180
030300
030600
018C00
019800
00F000
00E000
01B000
033000
061800
0C0C00
180C00
300600
FC1F80
FC1F80
ENDCHAR

STARTCHAR Y
ENCODING 89
SWIDTH 680 0
DWIDTH 17 0
BBX 16 18 3 0
BITMAP
FC3F
FC3F
300C
3018
1830
1830
1860
0CC0
0D80
0F80
0700
0600
0600
0C00
0C00
0C00
3F00
3F00
ENDCHAR

STARTCHAR Z
ENCODING 90
SWIDTH 520 0
DWIDTH 13 0
BBX 14 18 0 0
BITMAP
1FFC
1FFC
1818
1830
0060
00E0
01C0
0180
0300
0700
0600
0C00
1C00
1800
3030
6030
FFF0
FFF0
ENDCHAR

STARTCHAR bracketleft
ENCODING 91
SWIDTH 300 0
DWIDTH 7 0
BBX 9 22 0 -4
BITMAP
0F80
0F80
0C00
0C00
1800
1800
1800
1800
1800
3000
3000
3000
3000
6000
6000
6000
6000
6000
C000
C000
F800
F800
ENDCHAR

STARTCHAR backslash
ENCODING 92
SWIDTH 580 0
DWIDTH 11 0
BBX 5 18 4 0
BITMAP
C0
C0
C0
C0
C0
60
60
60
60
30
30
30
30
30
18
18
18
18
ENDCHAR

STARTCHAR bracketright
ENCODING 93
SWIDTH 300 0
DWIDTH 7 0
BBX 9 22 -1 -4
BITMAP
0F80
0F80
0180
0180
0300
0300
0300
0300
0300
0600
0600
0600
0600
0C00
0C00
0C00
0C00
0C00
1800
1800
F800
F800
ENDCHAR

STARTCHAR asciicircum
ENCODING 94
SWIDTH 660 0
DWIDTH 15 0
BBX 13 14 1 4
BITMAP
0180
0380
03C0
06C0
0CC0
0C60
1860
1860
3030
3030
6030
6018
C018
C018
ENDCHAR

STARTCHAR underscore
ENCODING 95
SWIDTH 500 0
DWIDTH 13 0
BBX 13 2 -1 -3
BITMAP
FFF8
FFF8
ENDCHAR

STARTCHAR quoteleft
ENCODING 96
SWIDTH 200 0
DWIDTH 5 0
BBX 3 4 4 14
BITMAP
C0
C0
60
60
ENDCHAR

STARTCHAR a
ENCODING 97
SWIDTH 660 0
DWIDTH 16 0
BBX 16 14 1 0
BITMAP
03CF
0FEF
1C3C
301C
600C
6018
C018
C018
C018
C030
6070
70F0
3FBC
0F3C
ENDCHAR

STARTCHAR b
ENCODING 98
SWIDTH 660 0
DWIDTH 16 0
BBX 16 18 0 0
BITMAP
1E00
1E00
0600
0600
0CF0
0DFC
0F0E
0E06
0C03
1803
1803
1803
1807
3006
380E
3C1C
F7F8
F3E0
ENDCHAR

STARTCHAR c
ENCODING 99
SWIDTH 560 0
DWIDTH 14 0
BBX 14 14 1 0
BITMAP
03CC
0FFC
1C18
3018
6000
6000
C000
C000
C000
C000
6030
70E0
3FC0
0F00
ENDCHAR

STARTCHAR d
ENCODING 100
SWIDTH 660 0
DWIDTH 16 0
BBX 16 18 1 0
BITMAP
000F
000F
0003
0003
03E6
0FF6
1C1E
300E
6006
600C
C00C
C00C
C00C
C018
6038
7078
3FDE
0F9E
ENDCHAR

STARTCHAR e
ENCODING 101
SWIDTH 580 0
DWIDTH 14 0
BBX 13 14 1 0
BITMAP
07C0
1FF0
3830
3018
6018
C018
FFF8
FFF8
C000
C000
C070
60E0
7FC0
1F00
ENDCHAR

STARTCHAR f
ENCODING 102
SWIDTH 300 0
DWIDTH 7 0
BBX 10 18 0 0
BITMAP
01C0
03C0
0700
0600
3F80
3F80
0C00
0C00
0C00
1800
1800
1800
1800
3000
3000
3000
FC00
FC00
ENDCHAR

STARTCHAR g
ENCODING 103
SWIDTH 660 0
DWIDTH 16 0
BBX 17 18 0 -4
BITMAP
03E780
0FF780
1C1E00
300E00
300600
600C00
600C00
600C00
600C00
601800
303800
387800
1FD800
07B000
C03000
E06000
7FE000
1F8000
ENDCHAR

STARTCHAR h
ENCODING 104
SWIDTH 640 0
DWIDTH 16 0
BBX 16 18 0 0
BITMAP
1E00
1E00
0600
0600
0CF8
0DFE
0F07
0E03
0C03
1806
1806
1806
1806
300C
300C
300C
FC3F
FC3F
ENDCHAR

STARTCHAR i
ENCODING 105
SWIDTH 260 0
DWIDTH 6 0
BBX 7 18 0 0
BITMAP
06
06
06
00
3C
3C
0C
0C
0C
18
18
18
18
30
30
30
FC
FC
ENDCHAR

STARTCHAR j
ENCODING 106
SWIDTH 240 0
DWIDTH 6 0
BBX 8 22 -1 -4
BITMAP
03
03
03
00
1E
1E
06
06
06
0C
0C
0C
0C
18
18
18
18
18
30
30
E0
C0
ENDCHAR

STARTCHAR k
ENCODING 107
SWIDTH 580 0
DWIDTH 15 0
BBX 16 18 0 0
BITMAP
1E00
1E00
0600
0600
0C3F
0C3F
0C1C
0C70
19C0
1F00
1E00
1B00
1980
30C0
3060
3030
FCFC
FCFC
ENDCHAR

STARTCHAR l
ENCODING 108
SWIDTH 280 0
DWIDTH 7 0
BBX 7 18 0 0
BITMAP
1E
1E
06
06
0C
0C
0C
0C
0C
18
18
18
18
30
30
30
FC
FC
ENDCHAR

STARTCHAR m
ENCODING 109
SWIDTH 980 0
DWIDTH 25 0
BBX 24 14 0 0
BITMAP
3CF078
3DFCFE
0F0F87
0E0703
0C0603
180C06
180C06
180C06
180C06
30180C
30180C
30180C
FC7E3F
FC7E3F
ENDCHAR

STARTCHAR n
ENCODING 110
SWIDTH 660 0
DWIDTH 17 0
BBX 16 14 0 0
BITMAP
3CF8
3DFE
0F07
0E03
0C03
1806
1806
1806
1806
300C
300C
300C
FC3F
FC3F
ENDCHAR

STARTCHAR o
ENCODING 111
SWIDTH 580 0
DWIDTH 14 0
BBX 14 14 0 0
BITMAP
07C0
1FF0
3838
7018
600C
C00C
C00C
C00C
C00C
C018
6038
7070
3FE0
0F80
ENDCHAR

STARTCHAR p
ENCODING 112
SWIDTH 660 0
DWIDTH 16 0
BBX 18 18 -1 -4
BITMAP
1E7C00
1EFF00
078380
070180
0600C0
0C00C0
0C00C0
0C00C0
0C0180
180180
1C0300
1E0E00
1BFC00
30F000
300000
300000
FC0000
FC0000
ENDCHAR

STARTCHAR q
ENCODING 113
SWIDTH 660 0
DWIDTH 16 0
BBX 16 18 1 -4
BITMAP
07CF
1FEF
383C
601C
600C
C018
C018
C018
C018
C030
6070
70F0
3FB0
0F60
0060
0060
01F8
01F8
ENDCHAR

STARTCHAR r
ENCODING 114
SWIDTH 360 0
DWIDTH 10 0
BBX 11 14 0 0
BITMAP
3CE0
3DE0
0F00
0E00
0C00
1800
1800
1800
1800
3000
3000
3000
FC00
FC00
ENDCHAR

STARTCHAR s
ENCODING 115
SWIDTH 420 0
DWIDTH 10 0
BBX 11 14 0 0
BITMAP
0F60
3FE0
70C0
60C0
6000
7000
3E00
0F80
01C0
00C0
C0C0
E180
FF00
DE00
ENDCHAR

STARTCHAR t
ENCODING 116
SWIDTH 320 0
DWIDTH 9 0
BBX 8 18 2 0
BITMAP
0C
0C
0C
0C
FF
FF
18
18
18
30
30
30
30
60
60
60
7C
7C
ENDCHAR

STARTCHAR u
ENCODING 117
SWIDTH 640 0
DWIDTH 16 0
BBX 13 14 2 0
BITMAP
F078
F078
3018
3018
6030
6030
6030
6030
C060
C060
C0E0
E1E0
7F78
1E78
ENDCHAR

STARTCHAR v
ENCODING 118
SWIDTH 640 0
DWIDTH 16 0
BBX 15 14 2 0
BITMAP
FC7E
FC7E
3018
3030
3030
1860
1860
18C0
0CC0
0D80
0D80
0700
0700
0600
ENDCHAR

STARTCHAR w
ENCODING 119
SWIDTH 900 0
DWIDTH 22 0
BBX 22 14 2 0
BITMAP
FC00FC
FC30FC
303030
307060
307060
18F0C0
1898C0
199980
191980
1B1B00
1A1B00
0E0E00
0C0C00
0C0C00
ENDCHAR

STARTCHAR x
ENCODING 120
SWIDTH 600 0
DWIDTH 15 0
BBX 16 14 0 0
BITMAP
3F3F
3F3F
0C18
0630
0760
03C0
0180
03C0
06C0
0C60
1870
3030
FCFC
FCFC
ENDCHAR

STARTCHAR y
ENCODING 121
SWIDTH 640 0
DWIDTH 16 0
BBX 15 18 2 -4
BITMAP
FC7E
FC7E
3018
3030
3030
3060
18C0
18C0
1980
1B00
0F00
0E00
0C00
1C00
1800
3000
FC00
FC00
ENDCHAR

STARTCHAR z
ENCODING 122
SWIDTH 420 0
DWIDTH 11 0
BBX 12 14 0 0
BITMAP
3FF0
3FF0
3060
30C0
0180
0300
0600
0C00
0C00
1800
30C0
60C0
FFC0
FFC0
ENDCHAR

STARTCHAR braceleft
ENCODING 123
SWIDTH 300 0
DWIDTH 8 0
BBX 8 22 1 -4
BITMAP
03
04
0C
0C
18
18
18
30
30
30
C0
30
30
30
60
60
60
C0
C0
C0
40
30
ENDCHAR

STARTCHAR bar
ENCODING 124
SWIDTH 660 0
DWIDTH 17 0
BBX 5 18 6 0
BITMAP
18
18
18
18
30
30
30
30
30
60
60
60
60
C0
C0
C0
C0
C0
ENDCHAR

STARTCHAR braceright
ENCODING 125
SWIDTH 300 0
DWIDTH 8 0
BBX 8 22 0 -4
BITMAP
0C
02
03
03
03
06
06
0C
0C
0C
03
0C
0C
18
18
18
18
18
30
30
20
C0
ENDCHAR

STARTCHAR asciitilde
ENCODING 126
SWIDTH 660 0
DWIDTH 15 0
BBX 13 4 1 6
BITMAP
1C18
7F18
C7F0
C1C0
ENDCHAR

STARTCHAR space
ENCODING 160
SWIDTH 300 0
DWIDTH 7 0
BBX 1 1 0 0
BITMAP
00
ENDCHAR

STARTCHAR exclamdown
ENCODING 161
SWIDTH 140 0
DWIDTH 6 0
BBX 5 18 1 -4
BITMAP
18
18
18
00
00
30
30
30
30
60
60
60
60
60
C0
C0
C0
C0
ENDCHAR

STARTCHAR cent
ENCODING 162
SWIDTH 580 0
DWIDTH 14 0
BBX 12 15 2 1
BITMAP
0300
0300
0FB0
3FF0
7660
6660
C600
C600
CC00
6C60
6CC0
3F80
1F00
1800
1800
ENDCHAR

STARTCHAR sterling
ENCODING 163
SWIDTH 640 0
DWIDTH 15 0
BBX 15 18 1 0
BITMAP
03E6
0FF6
0C1C
180C
180C
1800
1800
0C00
7FF0
7FF0
0600
0300
0300
030C
060C
0C18
FFF0
FFE0
ENDCHAR

STARTCHAR EuroSign
ENCODING 164
SWIDTH 594 0
DWIDTH 15 0
BBX 15 15 1 0
BITMAP
01F2
061A
0804
1004
2000
FFE0
2000
2000
FFE0
2000
2000
2008
1010
0860
0780
ENDCHAR

STARTCHAR yen
ENCODING 165
SWIDTH 740 0
DWIDTH 17 0
BBX 17 18 2 0
BITMAP
7E1F80
7E1F80
180600
180C00
0C1800
0C3000
066000
7EFE00
7FFE00
038000
FFFC00
FFFC00
030000
030000
060000
060000
3FC000
3FC000
ENDCHAR

STARTCHAR Scaron
ENCODING 166
SWIDTH 500 0
DWIDTH 13 0
BBX 14 23 0 0
BITMAP
0618
0330
01E0
00C0
0000
07CC
0FFC
1C38
1818
3018
3000
3800
1E00
0FC0
01F0
0038
0018
0018
C018
C030
E070
FFE0
DF80
ENDCHAR

STARTCHAR section
ENCODING 167
SWIDTH 440 0
DWIDTH 11 0
BBX 11 21 1 -3
BITMAP
07C0
0FE0
1C60
1860
1800
0C00
1F00
3F80
31C0
60C0
60C0
71C0
3F80
1E00
0600
0300
0300
C300
C700
FE00
7C00
ENDCHAR

STARTCHAR scaron
ENCODING 168
SWIDTH 420 0
DWIDTH 10 0
BBX 11 19 0 0
BITMAP
1860
0CC0
0780
0300
0000
0F60
3FE0
70C0
60C0
6000
7000
3E00
0F80
01C0
00C0
C0C0
E180
FF00
DE00
ENDCHAR

STARTCHAR copyright
ENCODING 169
SWIDTH 820 0
DWIDTH 20 0
BBX 19 18 1 0
BITMAP
01FC00
07FF00
1E0380
3871C0
31FCC0
638E60
660660
C60060
CC0060
CC0060
CC0C60
CE1CC0
C7F8C0
C3E180
600380
700F00
3FFC00
0FF000
ENDCHAR

STARTCHAR ordfeminine
ENCODING 170
SWIDTH 420 0
DWIDTH 10 0
BBX 11 11 1 7
BITMAP
0F60
39C0
30C0
60C0
6180
6180
3380
1EC0
0000
FF80
FF80
ENDCHAR

STARTCHAR guillemotleft
ENCODING 171
SWIDTH 320 0
DWIDTH 9 0
BBX 8 8 1 3
BITMAP
1B
36
6C
D8
D8
6C
36
1B
ENDCHAR

STARTCHAR logicalnot
ENCODING 172
SWIDTH 660 0
DWIDTH 17 0
BBX 14 7 3 4
BITMAP
FFFC
FFFC
0018
0018
0030
0030
0030
ENDCHAR

STARTCHAR hyphen
ENCODING 173
SWIDTH 300 0
DWIDTH 8 0
BBX 7 2 1 7
BITMAP
FE
FE
ENDCHAR

STARTCHAR registered
ENCODING 174
SWIDTH 820 0
DWIDTH 20 0
BBX 19 18 1 0
BITMAP
01FC00
07FF00
1E0380
39F9C0
33FCC0
630C60
630C60
C60C60
C61860
C7F060
C6E060
CE70C0
CC38C0
CC1D80
600380
700F00
3FFC00
0FF000
ENDCHAR

STARTCHAR macron
ENCODING 175
SWIDTH 460 0
DWIDTH 12 0
BBX 9 2 4 16
BITMAP
FF80
FF80
ENDCHAR

STARTCHAR degree
ENCODING 176
SWIDTH 400 0
DWIDTH 10 0
BBX 8 7 3 11
BITMAP
3E
63
C3
C3
C3
C6
7C
ENDCHAR

STARTCHAR plusminus
ENCODING 177
SWIDTH 660 0
DWIDTH 16 0
BBX 14 14 1 1
BITMAP
00C0
00C0
0180
0180
7FFC
7FFC
0300
0300
0600
0600
0000
0000
FFF8
FFF8
ENDCHAR

STARTCHAR twosuperior
ENCODING 178
SWIDTH 348 0
DWIDTH 8 0
BBX 8 11 2 7
BITMAP
3E
7F
63
03
06
1C
38
60
C6
FE
FE
ENDCHAR

STARTCHAR threesuperior
ENCODING 179
SWIDTH 348 0
DWIDTH 8 0
BBX 9 11 1 7
BITMAP
1F00
3F80
3180
0180
0700
1E00
0700
0300
C300
FE00
7C00
ENDCHAR

STARTCHAR Zcaron
ENCODING 180
SWIDTH 520 0
DWIDTH 13 0
BBX 14 23 0 0
BITMAP
0618
0330
01E0
00C0
0000
1FFC
1FFC
1818
1830
0060
00E0
01C0
0180
0300
0700
0600
0C00
1C00
1800
3030
6030
FFF0
FFF0
ENDCHAR

STARTCHAR mu
ENCODING 181
SWIDTH 640 0
DWIDTH 16 0
BBX 15 18 0 -4
BITMAP
3C1E
3C1E
0C06
0C06
180C
180C
180C
180C
3018
3018
3038
7878
7FDE
679E
6000
C000
C000
C000
ENDCHAR

STARTCHAR paragraph
ENCODING 182
SWIDTH 500 0
DWIDTH 13 0
BBX 12 21 3 -3
BITMAP
0FF0
3FF0
7EC0
FEC0
FEC0
FD80
FD80
7D80
1D80
1B00
1B00
1B00
1B00
3600
3600
3600
3600
6C00
6C00
6C00
6C00
ENDCHAR

STARTCHAR periodcentered
ENCODING 183
SWIDTH 300 0
DWIDTH 7 0
BBX 2 3 3 6
BITMAP
C0
C0
C0
ENDCHAR

STARTCHAR zcaron
ENCODING 184
SWIDTH 420 0
DWIDTH 11 0
BBX 12 19 0 0
BITMAP
1860
0CC0
0780
0300
0000
3FF0
3FF0
3060
30C0
0180
0300
0600
0C00
0C00
1800
30C0
60C0
FFC0
FFC0
ENDCHAR

STARTCHAR onesuperior
ENCODING 185
SWIDTH 348 0
DWIDTH 8 0
BBX 6 11 2 7
BITMAP
3C
3C
0C
18
18
18
30
30
30
FC
FC
ENDCHAR

STARTCHAR ordmasculine
ENCODING 186
SWIDTH 340 0
DWIDTH 9 0
BBX 10 11 1 7
BITMAP
0700
1980
30C0
60C0
60C0
6180
3300
1C00
0000
FF00
FF00
ENDCHAR

STARTCHAR guillemotright
ENCODING 187
SWIDTH 320 0
DWIDTH 10 0
BBX 8 8 2 3
BITMAP
D8
6C
36
1B
1B
36
6C
D8
ENDCHAR

STARTCHAR Ligature_OE
ENCODING 188
SWIDTH 1120 0
DWIDTH 28 0
BBX 29 18 1 0
BITMAP
00FE3FF8
03FFBFF8
0F01F018
1C00E018
38006000
30006000
60006000
60006000
C0007F80
C000FF80
C000C000
C000C000
C000C000
60018000
600380C0
380F80C0
1FFDFFC0
07F1FFC0
ENDCHAR

STARTCHAR Ligature_oe
ENCODING 189
SWIDTH 1060 0
DWIDTH 25 0
BBX 24 14 1 0
BITMAP
07C0F8
1FF3FE
383B06
701E03
600C03
C00C03
C00FFF
C00FFF
C01800
C01800
60380E
707C1C
3FEFF8
0F83E0
ENDCHAR

STARTCHAR Ydiaeresis
ENCODING 190
SWIDTH 680 0
DWIDTH 17 0
BBX 16 23 3 0
BITMAP
0318
0318
0318
0000
0000
FC3F
FC3F
300C
3018
1830
1830
1860
0CC0
0D80
0F80
0700
0600
0600
0C00
0C00
0C00
3F00
3F00
ENDCHAR

STARTCHAR questiondown
ENCODING 191
SWIDTH 520 0
DWIDTH 13 0
BBX 10 18 1 -4
BITMAP
0300
0300
0300
0000
0000
0600
0600
0C00
0C00
1800
3000
6000
C000
C0C0
C0C0
6180
7F80
3E00
ENDCHAR

STARTCHAR Agrave
ENCODING 192
SWIDTH 820 0
DWIDTH 20 0
BBX 20 23 0 0
BITMAP
00C000
00F000
003C00
000C00
000000
007C00
007C00
001C00
003600
006600
006600
00C300
018300
018300
030180
07FF80
07FF80
0C0180
1800C0
1800C0
3000C0
FC03F0
FC03F0
ENDCHAR

STARTCHAR Aacute
ENCODING 193
SWIDTH 820 0
DWIDTH 20 0
BBX 20 23 0 0
BITMAP
000300
000F00
003C00
003000
000000
007C00
007C00
001C00
003600
006600
006600
00C300
018300
018300
030180
07FF80
07FF80
0C0180
1800C0
1800C0
3000C0
FC03F0
FC03F0
ENDCHAR

STARTCHAR Acircumflex
ENCODING 194
SWIDTH 820 0
DWIDTH 20 0
BBX 20 23 0 0
BITMAP
001800
003C00
006600
00C300
000000
007C00
007C00
001C00
003600
006600
006600
00C300
018300
018300
030180
07FF80
07FF80
0C0180
1800C0
1800C0
3000C0
FC03F0
FC03F0
ENDCHAR

STARTCHAR Atilde
ENCODING 195
SWIDTH 820 0
DWIDTH 20 0
BBX 20 23 0 0
BITMAP
007180
00FF00
018E00
000000
000000
007C00
007C00
001C00
003600
006600
006600
00C300
018300
018300
030180
07FF80
07FF80
0C0180
1800C0
1800C0
3000C0
FC03F0
FC03F0
ENDCHAR

STARTCHAR Adieresis
ENCODING 196
SWIDTH 820 0
DWIDTH 20 0
BBX 20 23 0 0
BITMAP
006600
006600
006600
000000
000000
007C00
007C00
001C00
003600
006600
006600
00C300
018300
018300
030180
07FF80
07FF80
0C0180
1800C0
1800C0
3000C0
FC03F0
FC03F0
ENDCHAR

STARTCHAR Aring
ENCODING 197
SWIDTH 820 0
DWIDTH 20 0
BBX 20 24 0 0
BITMAP
003C00
006600
006600
006600
003C00
000000
007C00
007C00
001C00
003600
006600
006600
00C300
018300
018300
030180
07FF80
07FF80
0C0180
1800C0
1800C0
3000C0
FC03F0
FC03F0
ENDCHAR

STARTCHAR AE
ENCODING 198
SWIDTH 1000 0
DWIDTH 25 0
BBX 27 18 0 0
BITMAP
001FFFE0
001FFFE0
0003C060
0006C060
000CC000
00198000
00318000
00618000
00C1FE00
0183FE00
03FF0000
07FF0000
06030000
0C060000
18060300
30060300
FC1FFF00
FC1FFF00
ENDCHAR

STARTCHAR Ccedilla
ENCODING 199
SWIDTH 740 0
DWIDTH 18 0
BBX 18 22 1 -4
BITMAP
00FCC0
03FFC0
0F0380
1C0180
380180
300000
600000
600000
C00000
C00000
C00000
C00000
C00000
600180
600300
380E00
1FFC00
07F000
030000
078000
00C000
078000
ENDCHAR

STARTCHAR Egrave
ENCODING 200
SWIDTH 560 0
DWIDTH 14 0
BBX 16 23 0 0
BITMAP
0180
01E0
0078
0018
0000
1FFF
1FFF
0603
0603
0C00
0C00
0C00
0C00
0FF0
1FF0
1800
1800
1800
3000
3018
3018
FFF8
FFF8
ENDCHAR

STARTCHAR Eacute
ENCODING 201
SWIDTH 560 0
DWIDTH 14 0
BBX 16 23 0 0
BITMAP
000C
003C
00F0
00C0
0000
1FFF
1FFF
0603
0603
0C00
0C00
0C00
0C00
0FF0
1FF0
1800
1800
1800
3000
3018
3018
FFF8
FFF8
ENDCHAR

STARTCHAR Ecircumflex
ENCODING 202
SWIDTH 560 0
DWIDTH 14 0
BBX 16 23 0 0
BITMAP
0060
00F0
0198
030C
0000
1FFF
1FFF
0603
0603
0C00
0C00
0C00
0C00
0FF0
1FF0
1800
1800
1800
3000
3018
3018
FFF8
FFF8
ENDCHAR

STARTCHAR Edieresis
ENCODING 203
SWIDTH 560 0
DWIDTH 14 0
BBX 16 23 0 0
BITMAP
018C
018C
018C
0000
0000
1FFF
1FFF
0603
0603
0C00
0C00
0C00
0C00
0FF0
1FF0
1800
1800
1800
3000
3018
3018
FFF8
FFF8
ENDCHAR

STARTCHAR Igrave
ENCODING 204
SWIDTH 300 0
DWIDTH 7 0
BBX 9 23 0 0
BITMAP
1800
1E00
0780
0180
0000
1F80
1F80
0600
0600
0600
0C00
0C00
0C00
0C00
1800
1800
1800
1800
3000
3000
3000
FC00
FC00
ENDCHAR

STARTCHAR Iacute
ENCODING 205
SWIDTH 300 0
DWIDTH 7 0
BBX 11 23 0 0
BITMAP
0060
01E0
0780
0600
0000
1F80
1F80
0600
0600
0600
0C00
0C00
0C00
0C00
1800
1800
1800
1800
3000
3000
3000
FC00
FC00
ENDCHAR

STARTCHAR Icircumflex
ENCODING 206
SWIDTH 300 0
DWIDTH 7 0
BBX 11 23 0 0
BITMAP
0300
0780
0CC0
1860
0000
1F80
1F80
0600
0600
0600
0C00
0C00
0C00
0C00
1800
1800
1800
1800
3000
3000
3000
FC00
FC00
ENDCHAR

STARTCHAR Idieresis
ENCODING 207
SWIDTH 300 0
DWIDTH 7 0
BBX 10 23 0 0
BITMAP
0CC0
0CC0
0CC0
0000
0000
1F80
1F80
0600
0600
0600
0C00
0C00
0C00
0C00
1800
1800
1800
1800
3000
3000
3000
FC00
FC00
ENDCHAR

STARTCHAR Eth
ENCODING 208
SWIDTH 720 0
DWIDTH 18 0
BBX 19 18 0 0
BITMAP
1FFE00
1FFF80
060180
0600C0
0600C0
0C0060
0C0060
0C0060
7F8060
7F80C0
1800C0
1800C0
180180
300380
300700
301E00
FFF800
FFE000
ENDCHAR

STARTCHAR Ntilde
ENCODING 209
SWIDTH 800 0
DWIDTH 20 0
BBX 22 23 0 0
BITMAP
0038C0
007F80
00C700
000000
000000
1E00FC
1F00FC
070030
078030
068060
0CC060
0CC060
0C60C0
0C60C0
1830C0
1830C0
181980
181980
300D80
300D80
300700
FC0700
FC0700
ENDCHAR

STARTCHAR Ograve
ENCODING 210
SWIDTH 800 0
DWIDTH 20 0
BBX 20 23 1 0
BITMAP
00C000
00F000
003C00
000C00
000000
00FE00
03FF80
0F01C0
1C0060
380060
300030
600030
600030
C00030
C00030
C00060
C00060
C000C0
6001C0
600380
380F00
1FFC00
07F000
ENDCHAR

STARTCHAR Oacute
ENCODING 211
SWIDTH 800 0
DWIDTH 20 0
BBX 20 23 1 0
BITMAP
000300
000F00
003C00
003000
000000
00FE00
03FF80
0F01C0
1C0060
380060
300030
600030
600030
C00030
C00030
C00060
C00060
C000C0
6001C0
600380
380F00
1FFC00
07F000
ENDCHAR

STARTCHAR Ocircumflex
ENCODING 212
SWIDTH 800 0
DWIDTH 20 0
BBX 20 23 1 0
BITMAP
001800
003C00
006600
00C300
000000
00FE00
03FF80
0F01C0
1C0060
380060
300030
600030
600030
C00030
C00030
C00060
C00060
C000C0
6001C0
600380
380F00
1FFC00
07F000
ENDCHAR

STARTCHAR Otilde
ENCODING 213
SWIDTH 800 0
DWIDTH 20 0
BBX 20 23 1 0
BITMAP
0038C0
007F80
00C700
000000
000000
00FE00
03FF80
0F01C0
1C0060
380060
300030
600030
600030
C00030
C00030
C00060
C00060
C000C0
6001C0
600380
380F00
1FFC00
07F000
ENDCHAR

STARTCHAR Odieresis
ENCODING 214
SWIDTH 800 0
DWIDTH 20 0
BBX 20 23 1 0
BITMAP
006600
006600
006600
000000
000000
00FE00
03FF80
0F01C0
1C0060
380060
300030
600030
600030
C00030
C00030
C00060
C00060
C000C0
6001C0
600380
380F00
1FFC00
07F000
ENDCHAR

STARTCHAR multiply
ENCODING 215
SWIDTH 660 0
DWIDTH 16 0
BBX 13 12 2 2
BITMAP
6018
7038
3870
1CE0
0FC0
0780
0F00
1F80
39C0
70E0
E070
C030
ENDCHAR

STARTCHAR Oslash
ENCODING 216
SWIDTH 800 0
DWIDTH 20 0
BBX 20 18 1 0
BITMAP
00FE60
03FFC0
0F01C0
1C03E0
380660
300C30
601830
603030
C06030
C0C030
C18060
C30060
C600C0
6C01C0
780380
380F00
7FFC00
C7F000
ENDCHAR

STARTCHAR Ugrave
ENCODING 217
SWIDTH 700 0
DWIDTH 17 0
BBX 17 23 2 0
BITMAP
060000
078000
01E000
006000
000000
7E1F80
7E1F80
180600
180600
300C00
300C00
300C00
300C00
601800
601800
601800
601800
C03000
C03000
C03000
606000
7FE000
1F8000
ENDCHAR

STARTCHAR Uacute
ENCODING 218
SWIDTH 700 0
DWIDTH 17 0
BBX 17 23 2 0
BITMAP
001800
007800
01E000
018000
000000
7E1F80
7E1F80
180600
180600
300C00
300C00
300C00
300C00
601800
601800
601800
601800
C03000
C03000
C03000
606000
7FE000
1F8000
ENDCHAR

STARTCHAR Ucircumflex
ENCODING 219
SWIDTH 700 0
DWIDTH 17 0
BBX 17 23 2 0
BITMAP
00C000
01E000
033000
061800
000000
7E1F80
7E1F80
180600
180600
300C00
300C00
300C00
300C00
601800
601800
601800
601800
C03000
C03000
C03000
606000
7FE000
1F8000
ENDCHAR

STARTCHAR Udieresis
ENCODING 220
SWIDTH 700 0
DWIDTH 17 0
BBX 17 23 2 0
BITMAP
019800
019800
019800
000000
000000
7E1F80
7E1F80
180600
180600
300C00
300C00
300C00
300C00
601800
601800
601800
601800
C03000
C03000
C03000
606000
7FE000
1F8000
ENDCHAR

STARTCHAR Yacute
ENCODING 221
SWIDTH 680 0
DWIDTH 17 0
BBX 16 23 3 0
BITMAP
0018
0078
01E0
0180
0000
FC3F
FC3F
300C
3018
1830
1830
1860
0CC0
0D80
0F80
0700
0600
0600
0C00
0C00
0C00
3F00
3F00
ENDCHAR

STARTCHAR Thorn
ENCODING 222
SWIDTH 580 0
DWIDTH 14 0
BBX 15 18 0 0
BITMAP
1F80
1F80
0600
07F0
07FC
0C0C
0C06
0C06
0C06
1806
180C
181C
1FF8
3FE0
3000
3000
FC00
FC00
ENDCHAR

STARTCHAR germandbls
ENCODING 223
SWIDTH 580 0
DWIDTH 15 0
BBX 15 18 0 0
BITMAP
00F0
03FC
030E
0606
0606
0C0E
0C1C
0CF0
0CF8
180C
1806
1806
1806
3006
300C
331C
F3F8
F1E0
ENDCHAR

STARTCHAR agrave
ENCODING 224
SWIDTH 660 0
DWIDTH 16 0
BBX 16 19 1 0
BITMAP
0600
0780
01E0
0060
0000
03CF
0FEF
1C3C
301C
600C
6018
C018
C018
C018
C030
6070
70F0
3FBC
0F3C
ENDCHAR

STARTCHAR aacute
ENCODING 225
SWIDTH 660 0
DWIDTH 16 0
BBX 16 19 1 0
BITMAP
0018
0078
01E0
0180
0000
03CF
0FEF
1C3C
301C
600C
6018
C018
C018
C018
C030
6070
70F0
3FBC
0F3C
ENDCHAR

STARTCHAR acircumflex
ENCODING 226
SWIDTH 660 0
DWIDTH 16 0
BBX 16 19 1 0
BITMAP
00C0
01E0
0330
0618
0000
03CF
0FEF
1C3C
301C
600C
6018
C018
C018
C018
C030
6070
70F0
3FBC
0F3C
ENDCHAR

STARTCHAR atilde
ENCODING 227
SWIDTH 660 0
DWIDTH 16 0
BBX 16 19 1 0
BITMAP
01C6
03FC
0638
0000
0000
03CF
0FEF
1C3C
301C
600C
6018
C018
C018
C018
C030
6070
70F0
3FBC
0F3C
ENDCHAR

STARTCHAR adieresis
ENCODING 228
SWIDTH 660 0
DWIDTH 16 0
BBX 16 19 1 0
BITMAP
0330
0330
0330
0000
0000
03CF
0FEF
1C3C
301C
600C
6018
C018
C018
C018
C030
6070
70F0
3FBC
0F3C
ENDCHAR

STARTCHAR aring
ENCODING 229
SWIDTH 660 0
DWIDTH 16 0
BBX 16 20 1 0
BITMAP
01E0
0330
0330
0330
01E0
0000
03CF
0FEF
1C3C
301C
600C
6018
C018
C018
C018
C030
6070
70F0
3FBC
0F3C
ENDCHAR

STARTCHAR ae
ENCODING 230
SWIDTH 1060 0
DWIDTH 25 0
BBX 25 14 0 0
BITMAP
03E67C00
0FF6FF00
1C1F8300
300E0180
600C0180
600C0180
C00FFF80
C00FFF80
C00C0000
C01C0000
603C0300
707E0E00
3FDBFC00
0F99F000
ENDCHAR

STARTCHAR ccedilla
ENCODING 231
SWIDTH 560 0
DWIDTH 14 0
BBX 14 18 1 -4
BITMAP
03CC
0FFC
1C18
3018
6000
6000
C000
C000
C000
C000
6030
70E0
3FC0
0F00
0C00
1E00
0300
1E00
ENDCHAR

STARTCHAR egrave
ENCODING 232
SWIDTH 580 0
DWIDTH 14 0
BBX 13 19 1 0
BITMAP
0C00
0F00
03C0
00C0
0000
07C0
1FF0
3830
3018
6018
C018
FFF8
FFF8
C000
C000
C070
60E0
7FC0
1F00
ENDCHAR

STARTCHAR eacute
ENCODING 233
SWIDTH 580 0
DWIDTH 14 0
BBX 13 19 1 0
BITMAP
0030
00F0
03C0
0300
0000
07C0
1FF0
3830
3018
6018
C018
FFF8
FFF8
C000
C000
C070
60E0
7FC0
1F00
ENDCHAR

STARTCHAR ecircumflex
ENCODING 234
SWIDTH 580 0
DWIDTH 14 0
BBX 13 19 1 0
BITMAP
0180
03C0
0660
0C30
0000
07C0
1FF0
3830
3018
6018
C018
FFF8
FFF8
C000
C000
C070
60E0
7FC0
1F00
ENDCHAR

STARTCHAR edieresis
ENCODING 235
SWIDTH 580 0
DWIDTH 14 0
BBX 13 19 1 0
BITMAP
0660
0660
0660
0000
0000
07C0
1FF0
3830
3018
6018
C018
FFF8
FFF8
C000
C000
C070
60E0
7FC0
1F00
ENDCHAR

STARTCHAR igrave
ENCODING 236
SWIDTH 260 0
DWIDTH 6 0
BBX 7 19 0 0
BITMAP
60
78
1E
06
00
3C
3C
0C
0C
0C
18
18
18
18
30
30
30
FC
FC
ENDCHAR

STARTCHAR iacute
ENCODING 237
SWIDTH 260 0
DWIDTH 6 0
BBX 9 19 0 0
BITMAP
0180
0780
1E00
1800
0000
3C00
3C00
0C00
0C00
0C00
1800
1800
1800
1800
3000
3000
3000
FC00
FC00
ENDCHAR

STARTCHAR icircumflex
ENCODING 238
SWIDTH 260 0
DWIDTH 6 0
BBX 9 19 0 0
BITMAP
0C00
1E00
3300
6180
0000
3C00
3C00
0C00
0C00
0C00
1800
1800
1800
1800
3000
3000
3000
FC00
FC00
ENDCHAR

STARTCHAR idieresis
ENCODING 239
SWIDTH 260 0
DWIDTH 6 0
BBX 8 19 0 0
BITMAP
33
33
33
00
00
3C
3C
0C
0C
0C
18
18
18
18
30
30
30
FC
FC
ENDCHAR

STARTCHAR eth
ENCODING 240
SWIDTH 580 0
DWIDTH 14 0
BBX 14 18 1 0
BITMAP
0C70
07C0
0F80
30C0
07E0
1FF0
3838
7018
600C
C00C
C00C
C00C
C00C
C018
6038
7070
3FE0
0F80
ENDCHAR

STARTCHAR ntilde
ENCODING 241
SWIDTH 660 0
DWIDTH 17 0
BBX 16 19 0 0
BITMAP
00E3
01FE
031C
0000
0000
3CF8
3DFE
0F07
0E03
0C03
1806
1806
1806
1806
300C
300C
300C
FC3F
FC3F
ENDCHAR

STARTCHAR ograve
ENCODING 242
SWIDTH 580 0
DWIDTH 14 0
BBX 14 19 1 0
BITMAP
0C00
0F00
03C0
00C0
0000
07C0
1FF0
3838
7018
600C
C00C
C00C
C00C
C00C
C018
6038
7070
3FE0
0F80
ENDCHAR

STARTCHAR oacute
ENCODING 243
SWIDTH 580 0
DWIDTH 14 0
BBX 14 19 1 0
BITMAP
0030
00F0
03C0
0300
0000
07C0
1FF0
3838
7018
600C
C00C
C00C
C00C
C00C
C018
6038
7070
3FE0
0F80
ENDCHAR

STARTCHAR ocircumflex
ENCODING 244
SWIDTH 580 0
DWIDTH 14 0
BBX 14 19 1 0
BITMAP
0180
03C0
0660
0C30
0000
07C0
1FF0
3838
7018
600C
C00C
C00C
C00C
C00C
C018
6038
7070
3FE0
0F80
ENDCHAR

STARTCHAR otilde
ENCODING 245
SWIDTH 580 0
DWIDTH 14 0
BBX 14 19 1 0
BITMAP
038C
07F8
0C70
0000
0000
07C0
1FF0
3838
7018
600C
C00C
C00C
C00C
C00C
C018
6038
7070
3FE0
0F80
ENDCHAR

STARTCHAR odieresis
ENCODING 246
SWIDTH 580 0
DWIDTH 14 0
BBX 14 19 1 0
BITMAP
0660
0660
0660
0000
0000
07C0
1FF0
3838
7018
600C
C00C
C00C
C00C
C00C
C018
6038
7070
3FE0
0F80
ENDCHAR

STARTCHAR divide
ENCODING 247
SWIDTH 660 0
DWIDTH 16 0
BBX 13 12 2 2
BITMAP
0180
0180
0180
0000
0000
FFF8
FFF8
0000
0000
0C00
0C00
0C00
ENDCHAR

STARTCHAR oslash
ENCODING 248
SWIDTH 580 0
DWIDTH 14 0
BBX 15 14 0 0
BITMAP
03E6
0FFC
1C1C
383C
3066
60C6
6186
6306
6606
6C0C
381C
3838
7FF0
C7C0
ENDCHAR

STARTCHAR ugrave
ENCODING 249
SWIDTH 640 0
DWIDTH 16 0
BBX 13 19 2 0
BITMAP
0C00
0F00
03C0
00C0
0000
F078
F078
3018
3018
6030
6030
6030
6030
C060
C060
C0E0
E1E0
7F78
1E78
ENDCHAR

STARTCHAR uacute
ENCODING 250
SWIDTH 640 0
DWIDTH 16 0
BBX 13 19 2 0
BITMAP
0060
01E0
0780
0600
0000
F078
F078
3018
3018
6030
6030
6030
6030
C060
C060
C0E0
E1E0
7F78
1E78
ENDCHAR

STARTCHAR ucircumflex
ENCODING 251
SWIDTH 640 0
DWIDTH 16 0
BBX 13 19 2 0
BITMAP
0180
03C0
0660
0C30
0000
F078
F078
3018
3018
6030
6030
6030
6030
C060
C060
C0E0
E1E0
7F78
1E78
ENDCHAR

STARTCHAR udieresis
ENCODING 252
SWIDTH 640 0
DWIDTH 16 0
BBX 13 19 2 0
BITMAP
0660
0660
0660
0000
0000
F078
F078
3018
3018
6030
6030
6030
6030
C060
C060
C0E0
E1E0
7F78
1E78
ENDCHAR

STARTCHAR yacute
ENCODING 253
SWIDTH 640 0
DWIDTH 16 0
BBX 15 23 2 -4
BITMAP
0030
00F0
03C0
0300
0000
FC7E
FC7E
3018
3030
3030
3060
18C0
18C0
1980
1B00
0F00
0E00
0C00
1C00
1800
3000
FC00
FC00
ENDCHAR

STARTCHAR thorn
ENCODING 254
SWIDTH 660 0
DWIDTH 16 0
BBX 18 22 -1 -4
BITMAP
0F0000
0F0000
030000
030000
067C00
06FF00
078380
070180
0600C0
0C00C0
0C00C0
0C00C0
0C0180
180180
1C0300
1E0E00
1BFC00
30F000
300000
300000
FC0000
FC0000
ENDCHAR

STARTCHAR ydieresis
ENCODING 255
SWIDTH 640 0
DWIDTH 16 0
BBX 15 23 2 -4
BITMAP
0660
0660
0660
0000
0000
FC7E
FC7E
3018
3030
3030
3060
18C0
18C0
1980
1B00
0F00
0E00
0C00
1C00
1800
3000
FC00
FC00
ENDCHAR
ENDFONT
